
<svg version="1.1" id="Layer_1" xmlns="http://www.w3.org/2000/svg" xmlns:xlink="http://www.w3.org/1999/xlink" x="0px" y="0px"
	 viewBox="0 0 513.8 100.3" style="enable-background:new 0 0 513.8 100.3;" xml:space="preserve">
<style type="text/css">
	.st0{fill:#121212;}
</style>
<g>
	<g id="L_incapacité_et_le_retour_au_travail">
		<g>
			<path class="st0" d="M142.8,0.1h7.5V31h17.5v6.3h-25L142.8,0.1z"/>
			<path class="st0" d="M166.8,11.6c2.1-0.7,3.5-2.6,3.5-4.7h-3.4V0.1h7v6.1c0,4.7-3.6,7.2-7.1,7.8L166.8,11.6z"/>
			<path class="st0" d="M177.9,0.1h7.1v6.3h-7.1L177.9,0.1z M177.9,10.6h7.1v26.7h-7.1L177.9,10.6z"/>
			<path class="st0" d="M196.5,14.3h0.2c1.6-2.8,4.7-4.5,7.9-4.4c5.5,0,9.2,4.2,9.2,10v17.4h-7.1V20.9c0-2.9-1.7-4.9-4.6-4.9
				c-3.1,0-5.4,2.5-5.4,6.1v15.1h-7.1V10.6h6.9V14.3z"/>
			<path class="st0" d="M216.8,24c0-8,5.2-14.1,13.3-14.1c6.9,0,11.2,4,12.1,9.8h-6.9c-0.4-2.4-2.5-4.1-4.9-4.1
				c-4.3,0-6.5,3.3-6.5,8.4s2,8.4,6.3,8.4c2.7,0.2,5.1-1.8,5.4-4.5h6.8c-0.5,5.7-4.9,10.2-12,10.2C222,38.1,216.8,32,216.8,24z"/>
			<path class="st0" d="M262,34.3h-0.1c-1.4,2-3.3,3.6-7.9,3.6c-5.5,0-9.3-2.9-9.3-8.2c0-5.9,4.8-7.8,10.7-8.6c4.4-0.6,6.5-1,6.5-3
				s-1.5-3.2-4.5-3.2c-3.3,0-4.9,1.2-5.1,3.7H246c0.2-4.7,3.7-8.8,11.5-8.8c8,0,11.2,3.6,11.2,9.8v13.5c0,2,0.3,3.2,0.9,3.7v0.3
				h-6.8C262.4,36.4,262.1,35.4,262,34.3z M262.1,27.9v-4c-1.6,0.7-3.2,1.3-4.9,1.6c-3.7,0.8-5.5,1.7-5.5,4.2s1.7,3.4,4.2,3.4
				C259.8,33,262.1,30.5,262.1,27.9L262.1,27.9z"/>
			<path class="st0" d="M273.2,10.6h6.8V14h0.2c1.8-2.6,4.7-4.1,7.9-4.1c7.1,0,11.6,5.8,11.6,14.1c0,8.6-4.7,14.1-11.5,14.1
				c-3.8,0-6.2-1.5-7.7-3.8h-0.1v11.8h-7.1V10.6z M292.4,24.2c0-5-1.8-8.6-6.1-8.6s-6.2,3.8-6.2,8.6s2.2,8,6.5,8
				C290.2,32.2,292.4,29.3,292.4,24.2z"/>
			<path class="st0" d="M318.9,34.3h-0.1c-1.4,2-3.3,3.6-7.9,3.6c-5.5,0-9.3-2.9-9.3-8.2c0-5.9,4.8-7.8,10.7-8.6
				c4.4-0.6,6.4-1,6.4-3s-1.5-3.2-4.5-3.2c-3.3,0-4.9,1.2-5.1,3.7h-6.3c0.2-4.7,3.7-8.8,11.5-8.8c8,0,11.2,3.6,11.2,9.8v13.5
				c0,2,0.3,3.2,0.9,3.7v0.3h-6.8C319.2,36.4,318.9,35.4,318.9,34.3z M318.9,27.9v-4c-1.6,0.7-3.2,1.3-4.9,1.6
				c-3.7,0.8-5.5,1.7-5.5,4.2s1.7,3.4,4.2,3.4C316.7,33,318.9,30.5,318.9,27.9L318.9,27.9z"/>
			<path class="st0" d="M328.7,24c0-8,5.2-14.1,13.3-14.1c6.9,0,11.2,4,12.1,9.8h-6.9c-0.4-2.4-2.5-4.1-4.9-4.1
				c-4.3,0-6.5,3.3-6.5,8.4s2,8.4,6.4,8.4c2.7,0.2,5.1-1.8,5.4-4.5h6.8c-0.5,5.7-4.9,10.2-12,10.2C334,38.1,328.7,32,328.7,24z"/>
			<path class="st0" d="M357.5,0.1h7.1v6.3h-7.1V0.1z M357.5,10.6h7.1v26.7h-7.1V10.6z"/>
			<path class="st0" d="M367.6,10.6h3.7V2.3h6.9v8.3h4.6v4.7h-4.6v14.1c-0.2,1.3,0.7,2.5,2,2.6c0.2,0,0.4,0,0.7,0c0.9,0,2.1,0,2.1,0
				v5.2c0,0-1.6,0.1-4.4,0.1c-3.4,0-7.2-1.4-7.2-6.4V15.3h-3.7L367.6,10.6z"/>
			<path class="st0" d="M384.8,23.9c0-7.9,5.3-14,13.2-14c8.6,0,13.2,6.6,13.2,16.1h-19.3c0.5,4.1,2.8,6.7,6.8,6.7
				c2.8,0,4.4-1.2,5.1-3.3h7c-1,4.7-5.2,8.7-12.1,8.7C389.8,38.1,384.8,31.9,384.8,23.9z M391.9,21.1h11.8c-0.2-3.4-2.4-5.7-5.7-5.7
				C394.4,15.3,392.5,17.6,391.9,21.1z M400.7,7.3h-5.5L398,0h8.3L400.7,7.3z"/>
			<path class="st0" d="M421.9,23.9c0-7.9,5.3-14,13.2-14c8.6,0,13.2,6.6,13.2,16.1h-19.3c0.5,4.1,2.8,6.7,6.8,6.7
				c2.8,0,4.4-1.2,5.2-3.3h7c-1,4.7-5.2,8.7-12.1,8.7C426.9,38.1,421.9,31.9,421.9,23.9z M428.9,21.1h11.9c-0.2-3.4-2.5-5.7-5.7-5.7
				C431.4,15.3,429.6,17.6,428.9,21.1z"/>
			<path class="st0" d="M449.4,10.6h3.7V2.3h6.9v8.3h4.6v4.7H460v14.1c-0.2,1.3,0.7,2.5,2,2.6c0.2,0,0.4,0,0.7,0c0.9,0,2.1,0,2.1,0
				v5.2c0,0-1.6,0.1-4.4,0.1c-3.4,0-7.2-1.4-7.2-6.4V15.3h-3.7L449.4,10.6z"/>
			<path class="st0" d="M477,0.1h7.1v37.2H477V0.1z"/>
			<path class="st0" d="M487.5,23.9c0-7.9,5.4-14,13.2-14c8.6,0,13.2,6.6,13.2,16.1h-19.3c0.5,4.1,2.8,6.7,6.8,6.7
				c2.8,0,4.4-1.2,5.2-3.3h7c-1,4.7-5.2,8.7-12.1,8.7C492.5,38.1,487.5,31.9,487.5,23.9z M494.6,21.1h11.9c-0.2-3.4-2.4-5.7-5.7-5.7
				C497,15.3,495.2,17.6,494.6,21.1z"/>
		</g>
		<g>
			<path class="st0" d="M149.1,76.9h0.2c1.6-3,3.4-4.6,6.5-4.6c0.6,0,1.1,0,1.7,0.2v6.2h-0.1c-4.6-0.5-8,2-8,7.6v13h-7.1V72.6h6.8
				L149.1,76.9z"/>
			<path class="st0" d="M158.4,85.9c0-7.9,5.4-14,13.2-14c8.6,0,13.1,6.6,13.1,16.1h-19.3c0.5,4.1,2.8,6.7,6.8,6.7
				c2.8,0,4.4-1.2,5.1-3.3h7c-1,4.7-5.2,8.7-12.1,8.7C163.4,100.1,158.4,93.9,158.4,85.9z M165.5,83.1h11.9
				c-0.2-3.4-2.5-5.7-5.7-5.7C168,77.3,166.1,79.6,165.5,83.1z"/>
			<path class="st0" d="M186,72.6h3.7v-8.3h6.9v8.3h4.6v4.7h-4.6v14.1c-0.2,1.3,0.7,2.5,2,2.6c0.2,0,0.4,0,0.7,0c0.9,0,2.1,0,2.1,0
				v5.2c0,0-1.6,0.1-4.4,0.1c-3.4,0-7.2-1.4-7.2-6.4V77.3H186V72.6z"/>
			<path class="st0" d="M203.2,86c0-8,5.7-14.1,13.9-14.1s13.9,6.1,13.9,14.1s-5.7,14.1-13.9,14.1S203.2,94,203.2,86z M223.9,86
				c0-5.2-2.5-8.7-6.8-8.7s-6.8,3.5-6.8,8.7s2.4,8.7,6.8,8.7S223.9,91.2,223.9,86z"/>
			<path class="st0" d="M251.2,99.3v-3.1H251c-1.7,2.6-4.6,4-7.6,3.9c-5.9,0-9.3-3.8-9.3-9.6V72.6h7v16.6c0,3.1,1.4,4.8,4.4,4.8
				c3.3,0,5.4-2.5,5.4-6V72.6h7.1v26.7H251.2z"/>
			<path class="st0" d="M269.4,76.9h0.1c1.6-3,3.4-4.6,6.6-4.6c0.6,0,1.1,0,1.7,0.2v6.2h-0.2c-4.6-0.5-8,2-8,7.6v13h-7.1V72.6h6.8
				V76.9z"/>
			<path class="st0" d="M305.5,96.3h-0.1c-1.4,2-3.3,3.6-7.9,3.6c-5.5,0-9.3-2.9-9.3-8.2c0-5.9,4.8-7.8,10.7-8.6
				c4.4-0.6,6.4-1,6.4-3S303.9,77,301,77c-3.3,0-4.9,1.2-5.1,3.7h-6.3c0.2-4.7,3.7-8.8,11.5-8.8c8,0,11.2,3.6,11.2,9.8v13.6
				c0,2,0.3,3.2,0.9,3.7v0.3h-6.8C305.9,98.4,305.6,97.4,305.5,96.3z M305.6,89.9v-4c-1.6,0.7-3.2,1.3-4.9,1.6
				c-3.7,0.8-5.5,1.7-5.5,4.2s1.7,3.4,4.2,3.4C303.4,95,305.6,92.5,305.6,89.9L305.6,89.9z"/>
			<path class="st0" d="M333.6,99.3v-3.1h-0.2c-1.7,2.6-4.6,4-7.6,3.9c-5.9,0-9.2-3.8-9.2-9.6V72.6h7v16.6c0,3.1,1.4,4.8,4.4,4.8
				c3.3,0,5.4-2.5,5.4-6V72.6h7.1v26.7H333.6z"/>
			<path class="st0" d="M352.1,72.6h3.7v-8.3h6.9v8.3h4.6v4.7h-4.6v14.1c-0.2,1.3,0.7,2.5,2,2.6c0.2,0,0.4,0,0.7,0
				c0.9,0,2.1,0,2.1,0v5.2c0,0-1.6,0.1-4.4,0.1c-3.4,0-7.2-1.4-7.2-6.4V77.3h-3.7L352.1,72.6z"/>
			<path class="st0" d="M377.8,76.9h0.2c1.6-3,3.4-4.6,6.5-4.6c0.6,0,1.1,0,1.7,0.2v6.2H386c-4.6-0.5-8,2-8,7.6v13h-7V72.6h6.8
				L377.8,76.9z"/>
			<path class="st0" d="M404.4,96.3h-0.1c-1.3,2-3.3,3.6-7.8,3.6c-5.5,0-9.3-2.9-9.3-8.2c0-5.9,4.8-7.8,10.7-8.6
				c4.4-0.6,6.4-1,6.4-3s-1.5-3.2-4.5-3.2c-3.3,0-4.9,1.2-5.2,3.7h-6.3c0.2-4.7,3.7-8.8,11.5-8.8c8,0,11.2,3.6,11.2,9.8v13.6
				c0,2,0.3,3.2,0.9,3.7v0.3h-6.8C404.7,98.4,404.5,97.4,404.4,96.3z M404.5,89.9v-4c-1.6,0.7-3.2,1.3-4.9,1.6
				c-3.7,0.8-5.5,1.7-5.5,4.2s1.7,3.4,4.2,3.4C402.2,95,404.5,92.5,404.5,89.9L404.5,89.9z"/>
			<path class="st0" d="M413.1,72.6h7.2l4.3,13.8c0.8,2.5,1.2,4.3,1.2,4.3h0.1c0,0,0.4-1.7,1.2-4.3l4.4-13.8h7.1l-9.3,26.7h-6.8
				L413.1,72.6z"/>
			<path class="st0" d="M456,96.3L456,96.3c-1.4,2-3.4,3.6-7.9,3.6c-5.5,0-9.3-2.9-9.3-8.2c0-5.9,4.8-7.8,10.7-8.6
				c4.4-0.6,6.5-1,6.5-3s-1.5-3.2-4.5-3.2c-3.3,0-4.9,1.2-5.2,3.7H440c0.2-4.7,3.7-8.8,11.5-8.8c8,0,11.2,3.6,11.2,9.8v13.6
				c0,2,0.3,3.2,0.9,3.7v0.3h-6.8C456.4,98.4,456.1,97.4,456,96.3z M456.1,89.9v-4c-1.6,0.7-3.2,1.3-4.9,1.6
				c-3.7,0.8-5.5,1.7-5.5,4.2s1.7,3.4,4.2,3.4C453.8,95,456.1,92.5,456.1,89.9L456.1,89.9z"/>
			<path class="st0" d="M467.2,62.1h7.1v6.3h-7.1V62.1z M467.2,72.6h7.1v26.7h-7.1V72.6z"/>
			<path class="st0" d="M479,62.1h7v37.2h-7V62.1z"/>
		</g>
	</g>
	<path id="Path_940" class="st0" d="M100,0.3v100H0L100,0.3z"/>
</g>
</svg>
