<?xml version="1.0" encoding="UTF-8"?> <svg xmlns="http://www.w3.org/2000/svg" xmlns:xlink="http://www.w3.org/1999/xlink" width="50" height="31.677" viewBox="0 0 50 31.677"><defs><style>.a{fill:none;}.b{clip-path:url(#a);}.c{fill:#868683;}</style><clipPath id="a"><rect class="a" width="50" height="31.677"></rect></clipPath></defs><g transform="translate(73.35 46.47)"><g class="b" transform="translate(-73.35 -46.47)"><path class="c" d="M85.1,39.8a3,3,0,0,0-2.59-1.5,2.1,2.1,0,0,0-2.249,1.466c-.2,1.125,1.159,1.363,2.59,1.568h.068a5.244,5.244,0,0,1,2.727,1.091v-.1a12.134,12.134,0,0,0,.511-1.806l.068-.239h0a10.907,10.907,0,0,0,.136-1.6l-1.3,1.091" transform="translate(-52.892 -25.246)"></path><path class="c" d="M96.2,36.144a2.8,2.8,0,0,0-2.488-1.466c-1.4.034-1.84.784-1.909,1.261s1.022,1.022,2.42,1.227,3.988.682,3.579,3.647c-.341,2.386-2.488,4.4-5.862,4.5a5.76,5.76,0,0,1-3.442-.92,3.238,3.238,0,0,1-1.3-1.466l2.454-2.045a2.693,2.693,0,0,0,.75,1.057,3.1,3.1,0,0,0,2.113.682c1.261-.034,2.113-.682,2.215-1.261s-.545-.818-.716-.886l-2.045-.443c-1.363-.307-3.545-.818-3.17-3.511a5.147,5.147,0,0,1,5.283-4.329,5.215,5.215,0,0,1,3.033.818,3.681,3.681,0,0,1,1.193,1.227Z" transform="translate(-57.479 -21.216)"></path><path class="c" d="M21.711.055A21.529,21.529,0,0,0,10.225,4.213h.409A2.011,2.011,0,1,1,8.623,6.156a1.977,1.977,0,0,1,.2-.886,21.466,21.466,0,0,0-6.51,9.237,12.065,12.065,0,0,0-.545,2.045v.068h0a10.225,10.225,0,0,0,.034,3.817c1.057,5.215,6.169,8.419,12.406,8.487-5.487.545-10.464-.716-13.088-3.817A7.737,7.737,0,0,1,0,23.334c1.636,5.215,6.68,8.657,13.361,8.35a22.486,22.486,0,0,0,15.3-7.6l-1.193.1a5.794,5.794,0,0,1-3.442-.988A3.1,3.1,0,0,1,22.9,21.834l2.249-1.806a2.829,2.829,0,0,0,.716.92,3.442,3.442,0,0,0,2.318.818c1.431,0,2.454-.75,2.556-1.466v-.136c.034-.682-.648-.92-.852-1.022h-.034L27.71,18.63h-.034c-1.261-.307-3.17-.818-3.1-2.931l.068-.579A5.38,5.38,0,0,1,30.1,10.928a5.249,5.249,0,0,1,3.033.886l.273.2a5.78,5.78,0,0,0-.136-.75C32.209,6.088,27.1,2.85,20.825,2.816c5.487-.579,10.464.716,13.122,3.817a7.771,7.771,0,0,1,1.125,1.738C33.436,3.157,28.391-.286,21.711.055M12.065,23.811h-2.9V11.234H12.1ZM22.359,10.928l.818.068v2.658h-.409a4.772,4.772,0,0,0-1.943.375c-2.079.852-2.113,2.727-2.147,3.954h0v5.794h-2.9V11.234h2.761v2.249l.443-.613a3.848,3.848,0,0,1,3.374-1.909" transform="translate(0 -0.021)"></path><path class="c" d="M128.351,31.8a7.494,7.494,0,0,0-.239,1.943c.034.375.2,1.125,1.466,1.125h.784l-.477,2.727c-.579.034-1.227.136-2.113.136a4.6,4.6,0,0,1-2.045-.477c-1.022-.613-.886-2.147-.784-2.9l1.193-6.714H124.5l.375-2.113h1.636l.443-2.42,3.34-1.806-.784,4.26h2.556l-.375,2.113h-2.556Z" transform="translate(-82.066 -14.04)"></path></g></g></svg> 