<svg xmlns="http://www.w3.org/2000/svg" width="176.566" height="50"><defs><clipPath id="a"><path class="a" d="M0 0h176.566v50H0z"/></clipPath><clipPath id="b"><path class="a" d="M0 0h9.684v6.52H0z"/></clipPath><style>.a{fill:none}.b{fill:#12698f}.f{fill:#e7a717}</style></defs><path class="b" d="M87.745 11.244h1.13v5.509h-1.13z"/><g clip-path="url(#a)"><path class="b" d="M93.608 16.785h-1.022v-2.206a2.578 2.578 0 00-.054-.323l-.108-.269-.161-.161-.323-.108-.323.108-.269.215-.108.269v.215a2.415 2.415 0 000 .269v1.991h-1.021v-3.928h.968v.377l.484-.323a1.291 1.291 0 01.646-.161l.538.108.43.269a1.076 1.076 0 01.269.377 1.614 1.614 0 01.108.377 2.315 2.315 0 00.054.43zM97.323 14.044l-.377-.323a.968.968 0 00-.538-.161l-.43.108a.323.323 0 00-.161.269.269.269 0 00.215.269l.646.161.484.108.43.161a.939.939 0 01.538.861 1.237 1.237 0 01-.484.968 2.044 2.044 0 01-1.345.377 2.475 2.475 0 01-1.237-.323l-.323-.215-.215-.269.753-.646.161.161.161.161.377.161h.43l.538-.108q.215-.108.215-.269a.215.215 0 00-.108-.161l-.215-.108-.753-.161-.484-.108-.377-.161-.323-.323a.969.969 0 01-.108-.484 1.184 1.184 0 01.484-.968 1.829 1.829 0 011.184-.377h.592l.538.215.269.161.215.215zM100.226 14.959v.646a.538.538 0 00.161.269l.377.108h.269v.915h-1.13l-.269-.108a.646.646 0 01-.323-.323 1.614 1.614 0 01-.054-.484v-2.423h-.537v-.7h.538v-1.4h.968v1.4h.861v.7h-.861zM102.916 12.266h-1.022v-1.022h1.022zm0 4.519h-1.022v-3.927h1.022zM105.229 14.959v.646a.538.538 0 00.161.269l.377.108h.269v.915h-1.13l-.269-.108a.646.646 0 01-.323-.323 1.614 1.614 0 01-.054-.484v-2.423h-.537v-.7h.538v-1.4h.968v1.4h.861v.7h-.861zM106.897 12.858h1.022v2.529a.7.7 0 00.215.43l.377.161.323-.108.269-.215.108-.269v-.268a2.419 2.419 0 000-.269v-1.991h1.025v3.927h-.968v-.377l-.484.377a1.345 1.345 0 01-.646.161l-.646-.108-.43-.269a1.022 1.022 0 01-.269-.484 3.175 3.175 0 01-.054-.592zM112.653 14.959v.646a.538.538 0 00.161.269l.377.108h.269v.915h-1.13l-.269-.108a.646.646 0 01-.323-.323 1.614 1.614 0 01-.054-.484v-2.423h-.537v-.7h.538v-1.4h.968v1.4h.861v.7h-.861zM120.454 16.785h-1.022v-.323l-.377.269-.646.108-.7-.161a1.668 1.668 0 01-.538-.43 1.99 1.99 0 01-.377-.646 2.421 2.421 0 01-.108-.807 2.635 2.635 0 01.108-.861 1.99 1.99 0 01.377-.7 1.668 1.668 0 011.291-.592l.592.108.377.269v-1.775h1.022zm-1.022-2.26v-.161a.852.852 0 00-1.506-.377 1.345 1.345 0 00-.215.807 1.13 1.13 0 00.269.807.861.861 0 00.646.269h.377a.7.7 0 00.377-.377 2.529 2.529 0 00.054-.7zM125.296 15.978h-.054l-.215.215-.215.215-.646.323-.7.108a2.152 2.152 0 01-.807-.161 1.937 1.937 0 01-1.076-1.13 2.421 2.421 0 010-1.668 1.829 1.829 0 011.022-1.076l.753-.161.753.161a1.668 1.668 0 01.7.538 1.883 1.883 0 01.377.753 4.086 4.086 0 01.108.861h-2.8v.43a.915.915 0 00.377.377 1.076 1.076 0 00.592.161.968.968 0 00.538-.108l.377-.323zm-1.13-1.668a.753.753 0 00-.215-.484l-.269-.161h-.323a.861.861 0 00-.538.161l-.215.269-.108.269h1.668zM129.761 16.785h-1.022v-3.927h.968v.538a1.345 1.345 0 01.484-.484l.592-.161h.323v.915h-.161l-.538.108-.323.215-.161.269a1.132 1.132 0 00-.054.323 3.129 3.129 0 000 .323zM135.571 15.978h-.054l-.215.215-.215.215-.646.323-.7.108a2.152 2.152 0 01-.807-.161 1.937 1.937 0 01-.646-.43 1.99 1.99 0 01-.43-.646 2.421 2.421 0 010-1.668 1.788 1.788 0 011.022-1.022l.753-.161.753.161a1.668 1.668 0 01.7.538 1.883 1.883 0 01.377.753 4.034 4.034 0 01.108.861h-2.8v.43a.968.968 0 00.377.377 1.076 1.076 0 00.592.161.968.968 0 00.538-.108l.377-.323zm-1.13-1.668a.753.753 0 00-.215-.484l-.269-.161h-.323a.861.861 0 00-.538.161l-.215.269-.108.269h1.668zM140.144 15.709l-.215.323-.323.377-.538.323-.753.161-.753-.161a1.829 1.829 0 01-.646-.43 1.991 1.991 0 01-.43-.646 2.367 2.367 0 010-1.722 1.883 1.883 0 01.43-.646 1.937 1.937 0 01.646-.43l.753-.161h.484l.484.161.484.377a1.938 1.938 0 01.377.592l-.915.484-.104-.215-.161-.215-.269-.215h-.377a.861.861 0 00-.7.323 1.184 1.184 0 00-.269.807 1.13 1.13 0 00.269.807.915.915 0 00.7.323h.377l.269-.161.161-.215.108-.215zM144.286 16.785h-1.022v-2.206a2.686 2.686 0 00-.054-.323l-.108-.269-.161-.161-.323-.108-.323.108-.269.215-.108.269v.215a2.426 2.426 0 000 .269v1.991h-1.021v-5.541h1.022v1.937l.43-.323.646-.108h.538l.43.269a1.076 1.076 0 01.269.377 1.614 1.614 0 01.108.377 1.338 1.338 0 00.054.43zM149.075 15.978h-.054l-.215.215-.215.215-.646.323-.7.108a2.152 2.152 0 01-.807-.161 1.937 1.937 0 01-.646-.43 1.991 1.991 0 01-.43-.646 2.421 2.421 0 010-1.668 1.829 1.829 0 011.022-1.076l.753-.161.753.161a1.668 1.668 0 01.7.538 1.883 1.883 0 01.377.753 4.085 4.085 0 01.108.861h-2.744v.43a.915.915 0 00.377.377 1.076 1.076 0 00.592.161.968.968 0 00.538-.108l.377-.323zm-1.13-1.668a.753.753 0 00-.215-.484l-.269-.161h-.323a.861.861 0 00-.538.161l-.215.269-.108.269h1.668zM151.065 16.785h-1.022v-3.927h.968v.538a1.345 1.345 0 01.484-.484l.592-.161h.323v.915h-.161l-.538.108-.323.215-.161.269a1.128 1.128 0 00-.054.323v.323zM156.821 15.709l-.215.323-.323.377-.538.323-.753.161-.753-.161a1.829 1.829 0 01-.646-.43 1.99 1.99 0 01-.43-.646 2.367 2.367 0 010-1.722 1.883 1.883 0 01.43-.646 1.936 1.936 0 01.646-.43l.753-.161h.484l.484.161.484.377a1.937 1.937 0 01.377.592l-.915.484-.104-.215-.161-.215-.269-.215h-.377a.861.861 0 00-.7.323 1.184 1.184 0 00-.269.807 1.13 1.13 0 00.269.807.915.915 0 00.7.323h.377l.269-.161.161-.215.108-.215zM160.964 16.785h-1.022v-2.206a2.68 2.68 0 00-.054-.323l-.108-.269-.161-.161-.323-.108-.323.108-.269.215-.108.269v.215a2.419 2.419 0 000 .269v1.991h-1.021v-5.541h1.022v1.937l.43-.323.646-.108h.538l.43.269a1.076 1.076 0 01.269.377 1.614 1.614 0 01.108.377 1.338 1.338 0 00.054.43zM165.806 15.978h-.054l-.215.215-.215.215-.646.323-.7.108a2.152 2.152 0 01-.807-.161 1.937 1.937 0 01-.646-.43 1.991 1.991 0 01-.43-.646 2.421 2.421 0 010-1.668 1.829 1.829 0 011.022-1.076l.753-.161.753.161a1.668 1.668 0 01.7.538 1.883 1.883 0 01.377.753 4.087 4.087 0 01.108.861h-2.8v.43a.915.915 0 00.377.377 1.076 1.076 0 00.592.161.968.968 0 00.538-.108l.377-.323zm-1.13-1.668a.753.753 0 00-.215-.484l-.269-.161h-.323a.861.861 0 00-.538.161l-.215.269-.108.269h1.668zM92.103 27.006h-1.291l-1.13-2.1h-.807v2.1h-1.13v-5.541h2.851a1.56 1.56 0 01.7.323 1.614 1.614 0 01.43.592 1.829 1.829 0 01.161.807 1.614 1.614 0 01-.377 1.13l-.323.269-.377.161zm-3.228-3.013h1.453l.323-.269a.807.807 0 00.108-.484.861.861 0 00-.054-.323.646.646 0 00-.269-.269l-.323-.108h-1.238zM96.729 24.909a2.582 2.582 0 01-.108.753 1.883 1.883 0 01-.323.646 1.829 1.829 0 01-.646.484 2.1 2.1 0 01-.915.215l-.753-.161a1.829 1.829 0 01-.646-.377 1.937 1.937 0 01-.43-.7 2.367 2.367 0 01-.054-1.614 1.991 1.991 0 01.377-.646 1.776 1.776 0 01.646-.484 2.206 2.206 0 01.861-.161 2.1 2.1 0 01.861.161 1.722 1.722 0 01.592.43 1.937 1.937 0 01.377.592 2.421 2.421 0 01.161.7zm-1.345-.7a.861.861 0 00-1.345 0 1.291 1.291 0 00-.269.807 1.184 1.184 0 00.269.861.915.915 0 00.646.269.807.807 0 00.646-.323 1.345 1.345 0 00.269-.915 1.291 1.291 0 00-.269-.807M98.719 27.006h-1.022v-5.541h1.022v1.829l.43-.269.592-.108.7.161a1.668 1.668 0 01.592.43 1.883 1.883 0 01.377.646 2.637 2.637 0 01.161.861 2.583 2.583 0 01-.108.807 2.045 2.045 0 01-.323.646 1.614 1.614 0 01-.538.43 1.56 1.56 0 01-.7.161l-.646-.108-.43-.269zm1.4-2.8a.915.915 0 00-.592-.215l-.377.108-.269.215a.968.968 0 00-.108.323 2.531 2.531 0 00-.054.43 3.07 3.07 0 00.054.43.861.861 0 00.161.377l.215.215.377.108a.915.915 0 00.646-.269 1.13 1.13 0 00.269-.807 1.076 1.076 0 00-.323-.753M106.144 26.2h-.054l-.215.215-.215.215-.646.323-.7.108a2.152 2.152 0 01-.807-.161 1.937 1.937 0 01-.646-.43 1.991 1.991 0 01-.43-.646 2.421 2.421 0 010-1.668 1.978 1.978 0 011.076-1.076l.753-.161.753.161a1.668 1.668 0 01.7.538 1.883 1.883 0 01.377.753 4.033 4.033 0 01.108.861h-2.8v.43a.968.968 0 00.377.377 1.076 1.076 0 00.592.161.968.968 0 00.538-.108l.377-.323zm-1.13-1.668a.753.753 0 00-.215-.484l-.269-.161h-.323a.861.861 0 00-.538.161l-.215.269-.108.269h1.668zM108.08 27.007h-1.022V23.08h.968v.538a1.345 1.345 0 01.484-.484l.592-.161h.323v.915h-.161l-.538.108-.323.215-.161.269a1.129 1.129 0 00-.054.323 3.116 3.116 0 000 .323zM111.362 25.181v.646a.538.538 0 00.161.269l.377.108h.269v.915h-1.13l-.269-.108a.646.646 0 01-.323-.323 1.614 1.614 0 01-.054-.484v-2.423h-.537v-.7h.538v-1.4h.968v1.4h.861v.7h-.861zM112.922 24.102h1.829v.872h-1.829zM118.947 23.725l.7.161.538.323a1.237 1.237 0 01.377.538 1.775 1.775 0 01-.108 1.345 1.667 1.667 0 01-.538.592l-.753.323-.915.108-.968-.108-.7-.323-.43-.377-.269-.377.968-.646.161.269.269.269.43.215.592.108a1.506 1.506 0 00.861-.215.592.592 0 00.323-.484.484.484 0 00-.108-.269l-.215-.161-.269-.108h-.323l-.753-.161-.7-.215-.484-.269a1.275 1.275 0 01-.484-1.076 1.614 1.614 0 01.161-.646 1.722 1.722 0 01.43-.592 1.991 1.991 0 01.7-.377 2.636 2.636 0 01.915-.161l.807.108.753.323.377.269.269.323-.807.7-.161-.215-.269-.269-.43-.215-.538-.108a1.183 1.183 0 00-.753.215.592.592 0 00-.269.43.431.431 0 00.108.269l.215.161.269.108h.377zM124.005 27.006v-.269a1.237 1.237 0 01-.484.323l-.646.108a1.506 1.506 0 01-.968-.323 1.13 1.13 0 01-.377-.915 1.345 1.345 0 01.108-.538.968.968 0 01.538-.538l1.076-.269.484-.108.323-.108a1.289 1.289 0 000-.215v-.161l-.215-.161h-.753l-.215.108-.108.161v.215h-1.184a1.829 1.829 0 01.108-.538 1.022 1.022 0 01.43-.484l.538-.215h1.291l.592.215a.861.861 0 01.323.377 1.775 1.775 0 01.108.592v1.775a1.632 1.632 0 00.054.484 2.258 2.258 0 00.108.484zm-.323-1.775l-.43.108-.592.161a.422.422 0 00-.054.7.646.646 0 00.43.108.968.968 0 00.646-.215.538.538 0 00.215-.323 3.606 3.606 0 00.054-.592h-.219M126.103 23.079h1.022v2.529a.7.7 0 00.215.43l.377.161.323-.108.269-.215.108-.269v-.268a2.519 2.519 0 000-.269v-1.991h1.022v3.927h-.861v-.377l-.484.377a1.345 1.345 0 01-.646.161l-.646-.108-.43-.269a1.022 1.022 0 01-.269-.484 3.229 3.229 0 01-.054-.592zM132.613 27.006h-1.022l-1.238-3.927h.968l.807 2.69.807-2.69h.968zM138.369 26.199h-.054l-.215.215-.215.215-.646.323-.7.108a2.152 2.152 0 01-.807-.161 1.937 1.937 0 01-1.076-1.13 2.421 2.421 0 010-1.668 1.978 1.978 0 011.076-1.076l.752-.16.753.161a1.668 1.668 0 01.7.538 1.883 1.883 0 01.377.753 4.142 4.142 0 01.108.861h-2.851v.43a.968.968 0 00.377.377 1.076 1.076 0 00.592.161.968.968 0 00.538-.108l.377-.323zm-1.13-1.668a.753.753 0 00-.215-.484l-.269-.161h-.323a.861.861 0 00-.538.161l-.215.269-.108.269h1.668zm-.377-1.937h-.753l.43-1.13h1.291zM145.47 26.199h-.054l-.215.215-.215.215-.646.323-.7.108a2.152 2.152 0 01-.807-.161 1.937 1.937 0 01-1.076-1.13 2.421 2.421 0 010-1.668 1.829 1.829 0 011.022-1.076l.753-.161.753.161a1.668 1.668 0 01.7.538 1.883 1.883 0 01.377.753 4.139 4.139 0 01.108.861h-2.8v.43a.968.968 0 00.377.377 1.076 1.076 0 00.592.161.968.968 0 00.538-.108l.377-.323zm-1.13-1.668a.753.753 0 00-.215-.484l-.269-.161h-.323a.861.861 0 00-.538.161l-.215.269-.108.269h1.668zM149.881 27.007h-1.022v-2.206a2.692 2.692 0 00-.054-.323l-.108-.269-.161-.161-.323-.108-.323.108-.269.215-.108.269v.215a2.411 2.411 0 000 .269v1.991h-1.021v-3.928h.915v.377l.484-.323a1.291 1.291 0 01.646-.161l.538.108.43.269a1.076 1.076 0 01.269.377 1.614 1.614 0 01.108.377 1.336 1.336 0 00.054.43zM156.125 24.265l-.377-.323a.968.968 0 00-.538-.161l-.43.108a.323.323 0 00-.161.269.269.269 0 00.215.269l.646.161.484.108.43.161a1.076 1.076 0 01.377.323 1.022 1.022 0 01.161.538 1.237 1.237 0 01-.484.968 2.044 2.044 0 01-1.345.377 2.475 2.475 0 01-1.237-.323l-.323-.215-.218-.272.753-.646.161.161.161.161.377.161h.43l.538-.108q.215-.108.215-.269a.215.215 0 00-.108-.161l-.215-.108-.753-.161-.484-.108-.377-.161-.323-.323a.969.969 0 01-.108-.484 1.184 1.184 0 01.484-.968 1.829 1.829 0 011.184-.377h.592l.538.215.269.161.215.215zM160.373 27.006v-.269a1.237 1.237 0 01-.538.323l-.646.108a1.506 1.506 0 01-.968-.323 1.13 1.13 0 01-.377-.915 1.346 1.346 0 01.108-.538.968.968 0 01.538-.538l1.076-.269.484-.108.323-.108a1.242 1.242 0 000-.215v-.161l-.215-.161h-.912l-.215.108-.108.161v.215h-.915a1.829 1.829 0 01.108-.538 1.076 1.076 0 01.43-.484l.538-.215h1.237l.592.215a.861.861 0 01.323.377 1.776 1.776 0 01.108.592v1.775a1.632 1.632 0 00.054.484 2.206 2.206 0 00.108.484zm-.323-1.775l-.43.108-.592.161a.422.422 0 00-.054.7.646.646 0 00.43.108.968.968 0 00.646-.215.538.538 0 00.215-.323 3.549 3.549 0 00.054-.592h-.215M165.913 27.007h-1.022v-2.206a2.692 2.692 0 00-.054-.323l-.108-.269-.161-.161-.323-.108-.323.108-.269.215-.108.269v.215a2.434 2.434 0 000 .269v1.991h-1.075v-3.928h.968v.377l.484-.323a1.291 1.291 0 01.646-.161l.538.108.43.269a1.076 1.076 0 01.269.377 1.617 1.617 0 01.108.377 1.337 1.337 0 00.054.43zM168.226 25.181v.646a.538.538 0 00.161.269l.377.108h.269v.915h-1.13l-.269-.108a.646.646 0 01-.323-.323 1.615 1.615 0 01-.054-.484v-2.423h-.537v-.7h.538v-1.4h.968v1.4h.861v.7h-.861zM173.553 26.199h-.054l-.215.215-.215.215-.646.323-.7.108a2.152 2.152 0 01-.807-.161 1.937 1.937 0 01-1.076-1.13 2.421 2.421 0 010-1.668 1.978 1.978 0 011.076-1.076l.753-.161.753.161a1.668 1.668 0 01.7.538 1.883 1.883 0 01.377.753 4.2 4.2 0 01.108.861h-2.8v.43a.969.969 0 00.377.377 1.076 1.076 0 00.592.161.968.968 0 00.538-.108l.377-.323zm-1.13-1.668a.753.753 0 00-.215-.484l-.269-.161h-.323a.861.861 0 00-.538.161l-.215.269-.108.269h1.668zm-.377-1.937h-.753l.43-1.13h1.291zM91.296 36.422h-.054l-.215.215-.215.215-.646.323-.7.108a2.152 2.152 0 01-.807-.161 1.937 1.937 0 01-.646-.43 1.99 1.99 0 01-.43-.646 2.421 2.421 0 010-1.668 1.978 1.978 0 011.076-1.076l.753-.161.753.161a1.668 1.668 0 01.7.538 1.883 1.883 0 01.377.753 4.035 4.035 0 01.108.861h-2.8v.43a.968.968 0 00.377.377 1.076 1.076 0 00.592.161.968.968 0 00.538-.108l.377-.323zm-1.13-1.668a.753.753 0 00-.215-.484l-.269-.161h-.323a.861.861 0 00-.538.161l-.215.269-.108.269h1.668zM93.393 35.402v.646a.538.538 0 00.161.269l.377.108h.269v.915h-1.13l-.269-.108a.646.646 0 01-.323-.323 1.613 1.613 0 01-.054-.484v-2.423h-.537v-.7h.538v-1.4h.968v1.4h.861v.7h-.861zM101.248 36.422h-.054l-.215.215-.215.215-.646.323-.7.108a2.152 2.152 0 01-.807-.161 1.937 1.937 0 01-.646-.43 1.991 1.991 0 01-.43-.646 2.421 2.421 0 010-1.668 1.978 1.978 0 011.076-1.076l.752-.162.753.161a1.668 1.668 0 01.7.538 1.883 1.883 0 01.377.753 4.036 4.036 0 01.108.861h-2.8v.43a.968.968 0 00.377.377 1.076 1.076 0 00.592.161.968.968 0 00.538-.108l.377-.323zm-1.13-1.668a.753.753 0 00-.215-.484l-.269-.161h-.323a.861.861 0 00-.538.161l-.215.269-.108.269h1.668zM105.659 37.229h-1.022v-2.206a2.581 2.581 0 00-.054-.323l-.108-.269-.161-.161-.323-.108-.323.108-.269.215-.108.269v.215a2.419 2.419 0 000 .269v1.991h-1.075v-3.928h.968v.377l.484-.323a1.291 1.291 0 01.646-.161l.538.108.43.269a1.076 1.076 0 01.269.377 1.614 1.614 0 01.108.377 1.337 1.337 0 00.054.43zM111.903 34.487l-.377-.323a.968.968 0 00-.538-.161l-.43.108a.323.323 0 00-.161.269.269.269 0 00.215.269l.646.161.484.108.43.161a.939.939 0 01.538.861 1.237 1.237 0 01-.484.968 2.044 2.044 0 01-1.345.377 2.475 2.475 0 01-1.237-.323l-.323-.215-.215-.269.753-.646.161.161.161.161.377.161h.43l.538-.108q.215-.108.215-.269a.215.215 0 00-.108-.161l-.215-.108-.753-.161-.484-.108-.377-.161-.323-.323a.969.969 0 01-.108-.484 1.184 1.184 0 01.484-.968 1.829 1.829 0 011.184-.377h.592l.538.215.269.161.215.215zM117.28 36.421l-.215.215-.215.215-.646.323-.7.108a2.152 2.152 0 01-.807-.161 1.937 1.937 0 01-1.076-1.13 2.421 2.421 0 010-1.668 1.978 1.978 0 011.076-1.076l.753-.161.753.161a1.668 1.668 0 01.7.538 1.883 1.883 0 01.377.753 4.142 4.142 0 01.108.861h-2.8v.43a.968.968 0 00.377.377 1.076 1.076 0 00.592.161.968.968 0 00.538-.108l.377-.323zm-1.13-1.668a.753.753 0 00-.215-.484l-.269-.161h-.323a.861.861 0 00-.538.161l-.215.269-.108.269h1.667zm-.377-1.937h-.753l.43-1.13h1.291zM121.853 36.153l-.215.323-.323.377-.538.323-.753.161-.753-.161a1.829 1.829 0 01-.646-.43 1.99 1.99 0 01-.43-.646 2.367 2.367 0 010-1.722 1.883 1.883 0 01.43-.646 1.937 1.937 0 01.646-.43l.753-.161h.484l.484.161.484.377a1.936 1.936 0 01.377.592l-.915.484-.104-.215-.161-.215-.269-.215h-.377a.861.861 0 00-.7.323 1.183 1.183 0 00-.269.807 1.13 1.13 0 00.269.807.915.915 0 00.7.323h.377l.269-.161.161-.215.108-.215zM122.713 33.301h1.022v2.529a.7.7 0 00.215.43l.377.161.323-.108.269-.215.108-.269v-.268a2.411 2.411 0 000-.269v-1.991h1.025v3.927h-.968v-.377l-.484.377a1.345 1.345 0 01-.646.161l-.646-.108-.43-.269a1.022 1.022 0 01-.269-.484 3.175 3.175 0 01-.054-.592zM128.308 37.228h-1.022v-3.927h.968v.538a1.345 1.345 0 01.484-.484l.592-.161h.323v.915h-.161l-.538.108-.323.215-.161.269a1.129 1.129 0 00-.054.323 3.111 3.111 0 000 .323zM131.483 32.709h-1.022v-1.022h1.022zm0 4.519h-1.022v-3.927h1.022zM133.796 35.402v.646a.538.538 0 00.161.269l.377.108h.269v.915h-1.13l-.269-.108a.646.646 0 01-.323-.323 1.614 1.614 0 01-.054-.484v-2.423h-.537v-.7h.538v-1.4h.968v1.4h.861v.7h-.861zM139.122 36.421h-.054l-.215.215-.215.215-.646.323-.7.108a2.152 2.152 0 01-.807-.161 1.937 1.937 0 01-1.076-1.13 2.421 2.421 0 010-1.668 1.978 1.978 0 011.076-1.076l.753-.161.753.161a1.668 1.668 0 01.7.538 1.883 1.883 0 01.377.753 4.139 4.139 0 01.108.861h-2.8v.43a.968.968 0 00.377.377 1.076 1.076 0 00.592.161.968.968 0 00.538-.108l.377-.323zm-1.13-1.668a.753.753 0 00-.215-.484l-.269-.161h-.323a.861.861 0 00-.538.161l-.215.269-.108.269h1.668zm-.377-1.937h-.753l.43-1.13h1.291zM146.223 37.228h-1.022v-.323l-.377.269-.646.108-.7-.161a1.667 1.667 0 01-.538-.43 1.991 1.991 0 01-.377-.646 2.42 2.42 0 01-.108-.807 2.689 2.689 0 01.108-.861 1.991 1.991 0 01.377-.7 1.668 1.668 0 011.291-.592l.592.108.377.269v-1.775h1.022zm-1.022-2.26v-.161a.852.852 0 00-1.506-.377 1.345 1.345 0 00-.215.807 1.13 1.13 0 00.269.807.861.861 0 00.646.269h.377a.646.646 0 00.377-.377 2.528 2.528 0 00.054-.7zM147.353 33.301h1.022v2.529a.7.7 0 00.215.43l.377.161.323-.108.269-.215.108-.269v-.268a2.411 2.411 0 000-.269v-1.991h1.025v3.927h-.968v-.377l-.484.377a1.345 1.345 0 01-.646.161l-.646-.108-.43-.269a1.022 1.022 0 01-.269-.484 3.176 3.176 0 01-.054-.592zM155.638 35.402v.646a.538.538 0 00.161.269l.377.108h.269v.915h-1.13l-.269-.108a.646.646 0 01-.323-.323 1.614 1.614 0 01-.054-.484v-2.423h-.537v-.7h.538v-1.4h.968v1.4h.861v.7h-.861zM158.328 37.228h-1.022v-3.927h.968v.538a1.345 1.345 0 01.484-.484l.592-.161h.323v.915h-.161l-.538.108-.323.215-.161.269a1.129 1.129 0 00-.054.323v.323zM162.847 37.228v-.269a1.237 1.237 0 01-.538.323l-.646.108a1.506 1.506 0 01-.968-.323 1.13 1.13 0 01-.377-.915 1.345 1.345 0 01.108-.538.968.968 0 01.538-.538l1.076-.269.484-.108.323-.108a1.23 1.23 0 000-.215v-.161l-.215-.161h-.753l-.215.108-.108.161v.215h-.915a1.828 1.828 0 01.108-.538 1.076 1.076 0 01.43-.484l.538-.215h1.291l.592.215a.861.861 0 01.323.377 1.775 1.775 0 01.108.592v1.775a1.632 1.632 0 00.054.484 2.206 2.206 0 00.108.484zm-.323-1.775l-.43.108-.592.161a.422.422 0 00-.054.7.646.646 0 00.43.108.968.968 0 00.646-.215.538.538 0 00.215-.323 3.556 3.556 0 00.054-.592h-.215M166.829 37.228h-1.022l-1.238-3.927h.968l.807 2.69.807-2.69h.968zM171.294 37.228v-.269a1.237 1.237 0 01-.538.323l-.646.108a1.506 1.506 0 01-.968-.323 1.13 1.13 0 01-.377-.915 1.345 1.345 0 01.108-.538.968.968 0 01.538-.538l1.076-.269.484-.108.323-.108a1.236 1.236 0 000-.215v-.161l-.215-.161h-.753l-.215.108-.108.161v.215h-.915a1.828 1.828 0 01.108-.538 1.076 1.076 0 01.43-.484l.538-.215h1.291l.592.215a.86.86 0 01.323.377 1.775 1.775 0 01.108.592v1.775a1.632 1.632 0 00.054.484 2.206 2.206 0 00.108.484zm-.323-1.775l-.43.108-.592.161a.422.422 0 00-.054.7.646.646 0 00.43.108.968.968 0 00.646-.215.538.538 0 00.215-.323 3.55 3.55 0 00.054-.592h-.215M174.36 32.709h-1.022v-1.022h1.022zm0 4.519h-1.022v-3.927h1.022zM175.543 31.687h1.022v5.509h-1.022z"/><g clip-path="url(#b)" transform="translate(43.146 20.605)"><path class="b" d="M7.694 2.367A4.734 4.734 0 003.605 0C1.292 0 .216 1.4.054 2.313c-.323 1.775 1.829 2.152 4.089 2.475h.108a8.278 8.278 0 014.3 1.722v-.161a19.153 19.153 0 00.807-2.851l.108-.377A17.216 17.216 0 009.681.592L7.637 2.314"/></g><path class="f" d="M61.168 23.671a4.493 4.493 0 00-3.873-2.421c-2.206 0-2.905 1.184-3.013 1.937s1.614 1.668 3.766 2.044 6.294 1.184 5.487 5.918c-.646 3.766-4.089 6.832-9.415 6.832a9.092 9.092 0 01-5.38-1.56 5.111 5.111 0 01-1.936-2.367l3.927-3.175a4.25 4.25 0 001.184 1.668 4.9 4.9 0 003.282 1.184c1.991 0 3.389-1.022 3.551-1.883s-.807-1.291-1.13-1.4l-3.174-.753c-2.152-.538-5.6-1.4-4.9-5.7s4.36-6.616 8.504-6.616a8.231 8.231 0 014.788 1.4 5.81 5.81 0 011.829 1.991z"/><path class="b" d="M34.269.054a33.981 33.981 0 00-18.13 6.563h.646a3.174 3.174 0 11-3.174 3.068 3.12 3.12 0 01.323-1.4A33.882 33.882 0 003.658 22.864a19.045 19.045 0 00-.858 3.228v.108a16.139 16.139 0 00.054 6.025c1.668 8.231 9.737 13.288 19.583 13.4-8.662.861-16.516-1.13-20.658-6.025A12.212 12.212 0 010 36.798c2.582 8.231 10.544 13.665 21.089 13.181 9.146-.43 18.076-5.165 24.155-12l-1.883.161a9.146 9.146 0 01-5.434-1.56 4.9 4.9 0 01-1.775-2.152l3.548-2.849a4.465 4.465 0 001.13 1.453 5.434 5.434 0 003.658 1.291c2.26 0 3.873-1.184 4.035-2.313v-.215c.054-1.076-1.022-1.453-1.345-1.614h-.054l-3.389-.807h-.054c-1.991-.484-5-1.291-4.9-4.627l.108-.915a8.492 8.492 0 018.611-6.617 8.285 8.285 0 014.788 1.4l.43.323a9.122 9.122 0 00-.215-1.184C50.839 9.576 42.77 4.465 32.871 4.411c8.661-.915 16.516 1.13 20.712 6.025a12.266 12.266 0 011.775 2.749C52.776 4.949 44.814-.484 34.269.054m-15.225 37.5h-4.572V17.699H19.1zm16.248-20.339l1.291.108v4.2h-.646a7.532 7.532 0 00-3.066.592c-3.282 1.345-3.335 4.3-3.389 6.241v9.146h-4.573v-19.8h4.358v3.551l.7-.968a6.073 6.073 0 015.326-3.013"/><path class="f" d="M73.058 28.029a11.828 11.828 0 00-.377 3.066c.054.592.323 1.775 2.313 1.775h1.237l-.753 4.3c-.915.054-1.937.215-3.335.215a7.265 7.265 0 01-3.228-.753c-1.614-.968-1.4-3.389-1.237-4.573l1.883-10.6h-2.582l.592-3.335h2.582l.7-3.82 5.272-2.851-1.237 6.725h4.035l-.592 3.335h-4.035z"/></g></svg>